<svg width="528" height="528" viewBox="0 0 528 528" fill="none" xmlns="http://www.w3.org/2000/svg">
<path d="M264.001 3.25928C120.006 3.25928 3.25977 120.006 3.25977 264C3.25977 407.994 120.006 524.741 264.001 524.741C407.995 524.741 524.741 407.994 524.741 264C524.741 120.006 407.995 3.25928 264.001 3.25928ZM263.903 353.727C214.329 353.727 174.143 313.508 174.143 263.935C174.143 214.362 214.329 174.175 263.903 174.175C313.476 174.175 353.695 214.362 353.695 263.935C353.695 313.508 313.476 353.727 263.903 353.727Z" fill="black" stroke="#E6E6E6" stroke-width="2" stroke-miterlimit="10"/>
<path d="M43.1191 156.445C64.1088 112.379 112.378 62.0238 164.82 43.1201" stroke="#F91B23" stroke-width="2" stroke-miterlimit="10"/>
<path d="M57.8184 154.359C76.6569 121.212 125.578 70.5956 162.734 57.8193" stroke="#F91B23" stroke-width="2" stroke-miterlimit="10"/>
<path d="M71.2148 160.812C83.0134 124.992 133.89 82.6873 169.058 66.228" stroke="#F91B23" stroke-width="2" stroke-miterlimit="10"/>
<path d="M89.3027 175.348C101.101 139.529 146.47 103.677 181.638 87.2178" stroke="#F91B23" stroke-width="2" stroke-miterlimit="10"/>
<path d="M95.5938 187.929C112.379 152.24 137.573 127.078 171.143 106.089" stroke="#F91B23" stroke-width="2" stroke-miterlimit="10"/>
<path d="M114.465 181.639C131.25 150.154 150.154 133.369 185.81 114.498" stroke="#F91B23" stroke-width="2" stroke-miterlimit="10"/>
<path d="M129.164 183.724C141.745 154.358 187.929 127.078 194.219 124.96" stroke="#F91B23" stroke-width="2" stroke-miterlimit="10"/>
<path d="M139.66 190.015C158.531 156.444 190.016 141.745 194.22 139.659" stroke="#F91B23" stroke-width="2" stroke-miterlimit="10"/>
<path d="M145.949 202.628C164.82 171.144 173.229 164.853 200.509 148.068" stroke="#F91B23" stroke-width="2" stroke-miterlimit="10"/>
<path d="M158.562 206.8C173.262 183.724 181.638 173.23 215.208 156.444" stroke="#F91B23" stroke-width="2" stroke-miterlimit="10"/>
<path d="M166.939 217.295C173.23 200.51 181.639 190.015 213.091 171.144" stroke="#F91B23" stroke-width="2" stroke-miterlimit="10"/>
<path d="M78.8086 171.144C93.9641 133.043 148.068 85.0993 169.253 81.9705" stroke="#F91B23" stroke-width="2" stroke-miterlimit="10"/>
<path d="M481.718 370.513C460.729 414.578 412.459 464.933 360.018 483.837" stroke="#F91B23" stroke-width="2" stroke-miterlimit="10"/>
<path d="M467.019 372.599C448.181 405.745 399.259 456.362 362.104 469.138" stroke="#F91B23" stroke-width="2" stroke-miterlimit="10"/>
<path d="M453.655 366.145C441.857 401.965 390.98 444.27 355.812 460.729" stroke="#F91B23" stroke-width="2" stroke-miterlimit="10"/>
<path d="M435.567 351.609C423.769 387.428 378.4 423.28 343.232 439.739" stroke="#F91B23" stroke-width="2" stroke-miterlimit="10"/>
<path d="M429.245 339.028C412.46 374.717 387.266 399.878 353.695 420.868" stroke="#FF0000" stroke-width="2" stroke-miterlimit="10"/>
<path d="M409.624 345.449C392.97 376.673 374.229 393.36 338.801 412.101" stroke="#F91B23" stroke-width="2" stroke-miterlimit="10"/>
<path d="M395.023 343.363C382.54 372.533 336.715 399.585 330.457 401.671" stroke="#F91B23" stroke-width="2" stroke-miterlimit="10"/>
<path d="M385.179 336.91C366.308 370.48 334.824 385.179 330.619 387.265" stroke="#FF0000" stroke-width="2" stroke-miterlimit="10"/>
<path d="M378.367 324.622C359.626 355.846 351.282 362.104 324.23 378.759" stroke="#F91B23" stroke-width="2" stroke-miterlimit="10"/>
<path d="M365.884 320.45C351.315 343.363 342.972 353.76 309.662 370.447" stroke="#F91B23" stroke-width="2" stroke-miterlimit="10"/>
<path d="M357.54 310.021C351.282 326.676 342.971 337.105 311.715 355.846" stroke="#F91B23" stroke-width="2" stroke-miterlimit="10"/>
<path d="M446.062 355.813C430.906 393.914 376.802 441.858 355.617 444.987" stroke="#F91B23" stroke-width="2" stroke-miterlimit="10"/>
</svg>
